<?xml version="1.0" encoding="UTF-8" standalone="no"?>
<svg
   width="400"
   height="400"
   viewBox="0 0 620.96 694.22"
   version="1.1"
   id="svg13"
   sodipodi:docname="htlmd0.svg"
   inkscape:version="1.3.2 (091e20ef0f, 2023-11-25, custom)"
   xmlns:inkscape="http://www.inkscape.org/namespaces/inkscape"
   xmlns:sodipodi="http://sodipodi.sourceforge.net/DTD/sodipodi-0.dtd"
   xmlns="http://www.w3.org/2000/svg"
   xmlns:svg="http://www.w3.org/2000/svg">
  <defs
     id="defs13" />
  <sodipodi:namedview
     id="namedview13"
     pagecolor="#ffffff"
     bordercolor="#000000"
     borderopacity="0.25"
     inkscape:showpageshadow="2"
     inkscape:pageopacity="0.0"
     inkscape:pagecheckerboard="0"
     inkscape:deskcolor="#d1d1d1"
     inkscape:zoom="1.9675"
     inkscape:cx="200"
     inkscape:cy="200"
     inkscape:window-width="1920"
     inkscape:window-height="1015"
     inkscape:window-x="0"
     inkscape:window-y="0"
     inkscape:window-maximized="1"
     inkscape:current-layer="svg13" />
  <g
     transform="matrix(1.3333 0 0 -1.3333 -85.51 777.76)"
     id="g13">
    <g
       transform="translate(320.46 485.63)"
       id="g1">
      <path
         d="m0 0v97.69h209.39v-423.96h-124.1v208.63h-46.626v-208.63h-124.1v208.63h-46.799v-208.63h-124.1v423.96h209.56v-97.69z"
         fill="inherit"
         id="path1" />
    </g>
    <g
       clip-path="url(#clipPath22)"
       fill="currentColor"
       id="g12">
      <g
         transform="translate(108.47 108.77)"
         id="g2">
        <path
           d="m0 0v-29.295h-14.338v24.516c0 4.691-2.921 7.788-7.433 7.788-4.958 0-8.232-3.186-8.232-7.965v-24.339h-14.338v63.724h14.338v-23.365c3.362 3.804 7.788 5.84 13.01 5.84 10.178 0 16.993-6.725 16.993-16.904"
           class="text"
           id="path2" />
      </g>
      <g
         transform="translate(134.76 111.51)"
         id="g3">
        <path
           d="m0 0v-18.941h10.179v-13.099h-24.517v32.04h-7.611v13.099h7.611v13.274h14.338v-13.274h10.179v-13.099z"
           class="text"
           id="path3" />
      </g>
      <g
         transform="translate(175.38 92.572)"
         id="g4">
        <path
           d="m0 0v-13.099h-21.33v63.724h14.339v-50.625z"
           class="text"
           id="path4" />
      </g>
      <g
         transform="translate(257.54 140.54)"
         id="g5">
        <path
           d="m0 0v-61.068h-8.054v47.703l-21.419-47.703h-5.929l-21.33 47.703v-47.703h-8.143v61.068h10.71l21.86-48.943 21.862 48.943z"
           class="text"
           id="path5" />
      </g>
      <g
         transform="translate(293.29 135.67)"
         id="g6">
        <path
           d="m0 0c0 2.654 2.035 4.69 4.691 4.69s4.78-2.036 4.78-4.69c0-2.655-2.124-4.691-4.78-4.691s-4.691 2.036-4.691 4.691m-18.32 0c0 2.654 2.035 4.69 4.691 4.69 2.654 0 4.778-2.036 4.778-4.69 0-2.655-2.124-4.691-4.778-4.691-2.656 0-4.691 2.036-4.691 4.691m30.003-33.632c0 9.292-6.904 16.284-16.108 16.284-9.294 0-16.197-6.992-16.197-16.284 0-9.294 6.903-16.286 16.197-16.286 9.204 0 16.108 6.992 16.108 16.286m-40.182 0c0 13.453 10.355 23.63 24.074 23.63 13.629 0 23.985-10.177 23.985-23.63s-10.356-23.631-23.985-23.631c-13.719 0-24.074 10.178-24.074 23.631"
           class="text"
           id="path6" />
      </g>
      <g
         transform="translate(360.2 102.04)"
         id="g7">
        <path
           d="m0 0c0 9.292-6.903 16.284-16.107 16.284-9.293 0-16.197-6.992-16.197-16.284 0-9.294 6.904-16.286 16.197-16.286 9.204 0 16.107 6.992 16.107 16.286m7.612 41.154v-63.723h-7.612v8.585c-3.716-5.93-10.001-9.647-17.523-9.647-12.922 0-22.57 10.178-22.57 23.631s9.648 23.63 22.57 23.63c7.522 0 13.807-3.718 17.523-9.647v27.171z"
           class="text"
           id="path7" />
      </g>
      <g
         transform="translate(398.43 86.466)"
         id="g8">
        <path
           d="m0 0v-6.992h-15.932v63.723h7.613v-56.731z"
           class="text"
           id="path8" />
      </g>
      <path
         d="m409.85 124.61h7.611v-45.139h-7.611zm-1.327 14.071c0 2.922 2.213 5.044 5.131 5.044 2.833 0 5.046-2.122 5.046-5.044 0-2.833-2.213-5.045-5.046-5.045-2.918 0-5.131 2.212-5.131 5.045"
         class="text"
         id="path9" />
      <g
         transform="translate(472.5 107.35)"
         id="g10">
        <path
           d="m0 0v-27.879h-7.612v25.49c0 8.054-5.132 13.364-13.188 13.364-8.319 0-13.805-5.399-13.805-13.541v-25.313h-7.613v45.139h7.613v-7.259c3.45 5.311 9.205 8.319 16.285 8.319 10.973 0 18.32-7.257 18.32-18.32"
           class="text"
           id="path10" />
      </g>
      <g
         transform="translate(522.24 102.49)"
         id="g11">
        <path
           d="m0 0c0 9.204-6.904 16.196-16.108 16.196-9.292 0-16.197-6.992-16.197-16.196 0-9.294 6.905-16.286 16.197-16.286 9.204 0 16.108 6.992 16.108 16.286m7.61 22.127v-61.955h-43.366v6.991h35.756v19.117c-3.718-5.84-10.001-9.468-17.612-9.468-12.922 0-22.57 9.912-22.57 23.188 0 13.187 9.648 23.187 22.57 23.187 7.611 0 13.894-3.717 17.612-9.558v8.498z"
           class="text"
           id="path11" />
      </g>
    </g>
  </g>
</svg>
